<?xml version="1.0" encoding="UTF-8"?>
<svg width="308px" height="126px" viewBox="0 0 308 126" version="1.1" xmlns="http://www.w3.org/2000/svg" xmlns:xlink="http://www.w3.org/1999/xlink">
    <!-- Generator: Sketch 52.5 (67469) - http://www.bohemiancoding.com/sketch -->
    <title>Group</title>
    <desc>Created with Sketch.</desc>
    <g id="Page-1" stroke="none" stroke-width="1" fill="none" fill-rule="evenodd">
        <g id="Group" transform="translate(-0.029409, 0.298783)" fill="#FFFFFF">
            <g>
                <g>
                    <g transform="translate(84.362025, 29.608356)" id="Path">
                        <path d="M48.7665943,0 L62.6999069,0 L62.6999069,36.5750284 C62.6999069,53.8767585 48.6516444,67.9250528 31.3499534,67.9250528 C14.0482625,67.9250528 0,53.8767585 0,36.5750284 L0,0 L13.9333126,0 L13.9333126,36.5750284 C13.9333126,47.148695 21.7377094,55.7333766 31.3499534,55.7333766 C40.9621975,55.7333766 48.7665943,47.148695 48.7665943,36.5750284 L48.7665943,0 Z"></path>
                    </g>
                    <g transform="translate(192.574548, 61.791741) scale(-1, 1) rotate(-180.000000) translate(-192.574548, -61.791741) translate(161.074548, 27.791741)" id="Path">
                        <path d="M48.7665943,0 L62.6999069,0 L62.6999069,36.5750284 C62.6999069,53.8767585 48.6516444,67.9250528 31.3499534,67.9250528 C14.0482625,67.9250528 0,53.8767585 0,36.5750284 L0,0 L13.9333126,0 L13.9333126,36.5750284 C13.9333126,47.148695 21.7377094,55.7333766 31.3499534,55.7333766 C40.9621975,55.7333766 48.7665943,47.148695 48.7665943,36.5750284 L48.7665943,0 Z"></path>
                    </g>
                    <g transform="translate(0.754045, 0.000000)" id="Shape">
                        <path d="M12.1916486,95.7917411 L0,95.7917411 L0,64.4417167 L0.0522499224,64.4417167 C0.0174166408,63.8652246 0,63.2835075 0,62.7000487 L0,0 L13.9333126,0 L13.9333126,34.8385854 C19.7504707,30.4617737 26.9957932,27.8666883 34.8332816,27.8666883 C54.0612531,27.8666883 69.6665632,43.4755171 69.6665632,62.7000487 C69.6665632,81.9245803 54.0612531,97.5334091 34.8332816,97.5334091 C26.5081273,97.5334091 18.862222,94.6056651 12.8708976,89.7255114 L12.1916486,95.7917411 Z M33.9624496,40.0583644 C45.9799317,40.0583644 55.7332506,50.2035807 55.7332506,62.7000487 C55.7332506,75.1965167 45.9799317,85.341733 33.9624496,85.341733 C21.9449674,85.341733 12.1916486,75.1965167 12.1916486,62.7000487 C12.1916486,50.2035807 21.9449674,40.0583644 33.9624496,40.0583644 Z"></path>
                    </g>
                    <g transform="translate(272.302313, 76.400097) rotate(180.000000) translate(-272.302313, -76.400097) translate(237.302313, 27.400097)" id="Shape">
                        <path d="M12.1916486,95.7917411 L0,95.7917411 L0,64.4417167 L0.0522499224,64.4417167 C0.0174166408,63.8652246 0,63.2835075 0,62.7000487 L0,0 L13.9333126,0 L13.9333126,34.8385854 C19.7504707,30.4617737 26.9957932,27.8666883 34.8332816,27.8666883 C54.0612531,27.8666883 69.6665632,43.4755171 69.6665632,62.7000487 C69.6665632,81.9245803 54.0612531,97.5334091 34.8332816,97.5334091 C26.5081273,97.5334091 18.862222,94.6056651 12.8708976,89.7255114 L12.1916486,95.7917411 Z M33.9624496,40.0583644 C45.9799317,40.0583644 55.7332506,50.2035807 55.7332506,62.7000487 C55.7332506,75.1965167 45.9799317,85.341733 33.9624496,85.341733 C21.9449674,85.341733 12.1916486,75.1965167 12.1916486,62.7000487 C12.1916486,50.2035807 21.9449674,40.0583644 33.9624496,40.0583644 Z"></path>
                    </g>
                </g>
            </g>
        </g>
    </g>
</svg>