<svg xmlns="http://www.w3.org/2000/svg" viewBox="0 0 789.85 789.99"><defs><style>.cls-1{opacity:0.1;}</style></defs><title>Middel 2</title><g id="Laag_2" data-name="Laag 2"><g id="Laag_1-2" data-name="Laag 1"><path class="cls-1" d="M146.06,416.54s-183,324,239,373L336.77,622.75s-18.71-13.21-90.71-20.21S140.06,497.54,146.06,416.54Z"/><path d="M0,394.57c.9-16.29,1.36-32.63,2.87-48.87,1-10.73,3.33-21.36,5.41-32,1.37-7,3.24-13.89,5.1-20.78,2-7.29,4.11-14.54,6.34-21.76,1.76-5.69,3.73-11.33,5.7-17,.6-1.7,1.59-3.27,2.27-4.95,2.41-5.9,4.56-11.91,7.18-17.72,2.32-5.14,5.17-10.05,7.72-15.09,2.17-4.29,4.08-8.73,6.44-12.91,2.47-4.4,5.38-8.54,8-12.85.85-1.39,1.25-3.06,2.14-4.42,2.42-3.65,5-7.18,7.5-10.81,2.09-3.07,4-6.31,6.16-9.3,4-5.36,8.11-10.57,12.14-15.88,2.3-3,4.43-6.19,6.78-9.17,1.57-2,3.4-3.76,5.13-5.62q6-6.39,11.92-12.78c3.4-3.62,6.78-7.26,10.25-10.82,2-2,4.12-4,6.22-5.91,2.31-2.12,4.62-4.24,7-6.28,3-2.64,6.14-5.21,9.23-7.8,3.63-3,7.21-6.11,10.91-9,2.77-2.19,5.72-4.14,8.58-6.21,3.49-2.53,6.93-5.11,10.45-7.6,2.67-1.89,5.41-3.69,8.16-5.47,4.85-3.14,9.61-6.43,14.62-9.28,6.68-3.8,13.56-7.24,20.34-10.85,1-.55,1.92-1.36,3-1.84,5.78-2.64,11.6-5.2,17.39-7.82,4.37-2,8.7-4.08,13.11-6,2.73-1.17,5.57-2.05,8.38-3,2.57-.91,5.16-1.78,7.74-2.68,5.79-2,11.49-4.32,17.37-6,7.48-2.17,15.1-3.89,22.67-5.73,2.9-.7,5.86-1.19,8.78-1.81A373.14,373.14,0,0,1,376.53.31a531.76,531.76,0,0,1,58.68,1.36c7.36.51,14.66,2.1,22,3.33,6.48,1.08,12.94,2.24,19.39,3.52C483.4,9.89,490.27,11.17,497,13s13.24,4.31,19.87,6.42c6.06,1.93,12.18,3.71,18.24,5.65a47.88,47.88,0,0,1,5.52,2.23c7.68,3.56,15.31,7.21,23,10.74,2.68,1.23,5.59,2,8.17,3.39C578,44.81,584.11,48.51,590.32,52c1.86,1,4.07,1.52,5.86,2.67,6,3.84,11.8,7.9,17.73,11.81,3.44,2.27,7.05,4.28,10.45,6.62,4.82,3.32,9.6,6.72,14.23,10.3,2.8,2.15,5.22,4.8,8,7,2.47,2,5.24,3.67,7.71,5.68,2.17,1.77,4.1,3.85,6.16,5.76,3,2.74,6,5.42,8.9,8.18,1.63,1.53,3.19,3.13,4.75,4.74,4.53,4.7,9.12,9.36,13.55,14.15,2.34,2.54,4.36,5.36,6.6,8,1.64,1.93,3.49,3.68,5.1,5.64,3.62,4.41,7.24,8.83,10.69,13.37q5.93,7.8,11.52,15.81c3.21,4.6,6.27,9.31,9.26,14,3.23,5.1,6.45,10.21,9.39,15.48,2.17,3.87,3.85,8,5.79,12,.8,1.64,1.71,3.22,2.57,4.82,2,3.77,4.17,7.47,6,11.32,1.72,3.57,3.16,7.28,4.69,10.95,1.71,4.12,3.44,8.24,5,12.41,1.75,4.58,3.46,9.18,5,13.82,1.51,4.48,2.92,9,4.14,13.57,2.06,7.7,3.91,15.45,5.9,23.16.58,2.26,1.53,4.43,2,6.71,1.89,9.8,3.94,19.59,5.37,29.46,1.07,7.32,1.48,14.76,1.83,22.16.62,13,1.57,26,1.26,38.94-.38,16.14-1.29,32.33-3.12,48.36a192.25,192.25,0,0,1-7,35.47c-2.67,8.55-4.29,17.41-6.81,26-2,6.92-4.62,13.68-7.09,20.47-1.94,5.35-4.06,10.63-6.13,15.93-.79,2-1.57,4-2.53,6-3.59,7.25-7.15,14.52-10.91,21.68s-7.65,14.48-11.8,21.54c-3.58,6.1-7.59,12-11.44,17.91-2.56,4-5,8-7.81,11.82-3.36,4.57-7.06,8.89-10.54,13.37-2.23,2.87-4.26,5.9-6.52,8.73-1.57,2-3.39,3.75-5.11,5.6q-5.81,6.22-11.62,12.44c-3.57,3.8-7.08,7.65-10.76,11.33-2.44,2.43-5.17,4.56-7.71,6.9-1.52,1.39-2.83,3-4.39,4.37-5.85,5.05-11.67,10.15-17.7,15-4,3.25-8.43,6.08-12.65,9.11-3.29,2.37-6.5,4.85-9.85,7.13-4.5,3-9.1,6-13.65,9-3,1.94-5.83,4-8.89,5.83-5.92,3.46-11.85,6.91-17.93,10.06-5.47,2.83-11.14,5.28-16.74,7.84s-11.07,4.93-16.59,7.42c-1.82.81-3.54,1.85-5.4,2.55-5.56,2.1-11.11,4.24-16.76,6.08-8.75,2.85-17.48,5.88-26.4,8.07-10.94,2.69-22.08,4.62-33.14,6.83-4.57.91-9.13,2-13.75,2.5-8.68,1-17.39,1.7-26.08,2.58-12.62,1.29-25.28,2.12-37.92,1-11.66-1-23.4-1.69-34.66-5.58-6.73-2.33-13.84-3.59-20.52-6-5.71-2.1-11-5.23-16.55-7.9-2.08-1-4.28-1.81-6.25-3-6.94-4.13-14.08-8-20.61-12.68-6.15-4.43-12.11-9.27-16-16.17-2-3.57-4.82-6.69-6.87-10.24-4-6.9-5.75-14.5-7.18-22.31-2.23-12.18-.61-24,2.89-35.5a48.59,48.59,0,0,1,11.55-19.84,65.69,65.69,0,0,0,4.34-5.08c3.7-4.72,8.6-7.91,13.65-10.92,5.78-3.43,11.59-6.8,18.28-8.16,6.18-1.25,12.32-2.84,18.57-3.49A50.09,50.09,0,0,1,349,625.9c2.93,1.13,6.07,1.73,8.92,3,4.65,2.06,9.14,4.49,13.72,6.69,2.07,1,4.37,1.58,6.3,2.78,5.6,3.49,10.85,7.59,16.65,10.68,4.28,2.28,7.81,5.43,11.8,8,2.76,1.79,5.35,3.84,8.06,5.71,1.63,1.13,3.3,2.21,5,3.2,6.88,4,13.62,8.19,20.72,11.69,3.81,1.87,8.26,2.4,12.38,3.65,9.58,2.92,19.38,3.26,29.19,2.14,4.39-.5,8.64-2.25,12.94-3.46.48-.13.9-.54,1.37-.59,6.06-.72,10.59-4.57,15.44-7.67,2.4-1.53,4.38-3.74,6.5-5.71a61.26,61.26,0,0,0,5.76-5.63,70.58,70.58,0,0,0,5.87-8.19,74.86,74.86,0,0,0,5.2-9.76,67.11,67.11,0,0,0,4.21-12.19,154.06,154.06,0,0,0,2-16.07,8.83,8.83,0,0,0-.78-2.92c-1.06.58-2.61.9-3.08,1.79-2.17,4.16-5.63,6.83-9.22,9.68-4,3.15-8.52,4.68-12.93,6.65-6.71,3-13.93,2.46-20.94,1.79a50.38,50.38,0,0,1-12.7-3.4,93.59,93.59,0,0,1-13.85-6.43,44.53,44.53,0,0,1-8.65-7c-3.53-3.46-6.83-7.18-10-11-1.69-2-2.94-4.35-4.46-6.5-2.05-2.9-4.19-5.74-6.25-8.64-3.48-4.9-6.84-9.89-10.41-14.73-2.29-3.09-4.91-5.92-7.29-8.94s-4.48-6.13-6.88-9.06-5.15-5.84-7.74-8.75c-1.75-2-3.44-4-5.27-5.93-5.46-5.7-10.74-11.59-16.54-16.92A174.89,174.89,0,0,0,368,511.07c-5.59-4-11.23-8.21-17.38-11.22-4.45-2.18-8.36-5.77-13.72-6.16-1.55-.12-3-1.38-4.54-2-8.37-3.35-16.71-6.78-25.15-9.95-6.67-2.5-13.48-4.59-20.18-7-2.4-.87-4.62-2.21-7-3.22-2.81-1.21-5.67-2.28-8.51-3.42a117.74,117.74,0,0,1-10.94-4.48c-6.33-3.31-12.52-6.67-18.08-11.49a58.57,58.57,0,0,1-13-15.91c-2.44-4.36-4-9.27-5.56-14-3.47-10.38-2.8-21.22-3.15-31.94a3.46,3.46,0,0,1,1.37-2.58c.49-.31,1.68.39,2.52.74,2.27,1,4.46,2.2,6.81,2.95,3.7,1.18,7.45,2.53,11.27,2.93,7.6.78,15.26,1.23,22.89,1.27A83.42,83.42,0,0,0,280,394a36.13,36.13,0,0,0,8.28-2.7c7.46-3.29,14.83-6.77,22.23-10.16a6.63,6.63,0,0,1,1.42-.49c12-2.39,23.86-5.91,36.35-5.86,12.11,0,24.18.23,36,3.35,12.49,3.31,25.2,3,37.92,2.68,3.08-.07,6.16-.59,9.23-.54,7.37.12,14.31-1.66,21.19-4.07,5.77-2,11.62-3.79,17.4-5.77a36.17,36.17,0,0,0,3.49-1.91c5.12-2.49,10.38-4.72,15.37-7.44,4.17-2.28,8-5.12,12.06-7.67,3.55-2.25,7.19-4.36,10.67-6.72,2.31-1.57,4.31-3.61,6.62-5.17s5-2.83,7.41-4.29c1.13-.68,2.09-1.65,3.24-2.25,4.85-2.52,9.75-5,14.63-7.41a33.08,33.08,0,0,1,5.38-2.57c10.93-3.13,21.84-6.86,33.4-5.88,5.64.47,11.13,2.54,16.75,3.41,4.81.75,8.73,3.22,12.56,5.75,3.14,2.08,5.74,5,8.57,7.54.43.39.79.86,1.24,1.24,2,1.67,3.22,1.31,3.84-1.3a44.42,44.42,0,0,0,1.25-7.12c.83-11.82,1.27-23.66-.48-35.42-1.06-7.15-2.69-14.22-4.26-21.28a58,58,0,0,0-2.6-7.28c-2-5.2-3.94-10.39-5.87-15.6-2-5.52-5.6-10.1-9.1-14.73-2.1-2.77-3.91-5.79-6.23-8.35a63.87,63.87,0,0,0-7.38-6.54c-3.67-3-7.35-5.91-11.22-8.58a38.13,38.13,0,0,0-6.64-3.14c-5.39-2.33-10.65-5.1-16.24-6.77a87.41,87.41,0,0,0-17.16-3.11,106.56,106.56,0,0,0-27.59,1.32c-7.47,1.29-14.35,4.08-21.53,6-1.4.38-2.57,1.57-4,2.09-8.08,3-15.59,7.26-23.39,10.86-4.83,2.23-9.19,5.68-14.89,6.12-2.08.17-4,2-6.08,2.69-11.16,3.69-22.41,7.37-34.38,5.72-9.23-1.27-18.27-3.49-26.56-8.09-2.05-1.14-4.54-1.49-6.62-2.6-6.77-3.62-13.44-7.42-20.16-11.14a15.41,15.41,0,0,0-2.26-1c-2.08-.76-4.21-1.39-6.26-2.22-5.53-2.22-10.91-4.88-16.57-6.68A101.07,101.07,0,0,0,312,197a99.2,99.2,0,0,0-18.61-1c-4.47.24-8.8,2.33-13.28,3.11-4.93.86-8.89,3.68-13.07,6a68.08,68.08,0,0,0-10.33,7.57,63.74,63.74,0,0,0-6.66,6.59c-3.21,3.56-6.41,7.14-9.32,10.94a19.31,19.31,0,0,1-14.81,8c-2.72.19-5.37,1.65-8,2.63-3.32,1.22-6.63,2.49-9.9,3.84-4.6,1.89-9.18,3.85-13.76,5.81-5.38,2.3-10.82,4.47-16.09,7-3.57,1.72-6.85,4-10.29,6-4.64,2.68-9.34,5.24-13.93,8a85,85,0,0,0-7.62,5.1c-5.8,4.33-11.47,8.81-17.26,13.15-2.69,2-5.61,3.72-8.26,5.77a60.78,60.78,0,0,0-5.22,4.94c-2.22,2.2-4.34,4.5-6.59,6.67s-4.83,4.27-7.09,6.56-4.14,4.65-6.24,6.95c-2.34,2.55-4.88,4.92-7,7.61-5.25,6.49-10.43,13-15.44,19.72-3.41,4.55-6.65,9.25-9.65,14.08-2.25,3.62-3.93,7.59-6,11.34-2.24,4.07-4.88,8-6.9,12.13-2.59,5.37-4.73,11-7.07,16.45-.43,1-1,1.91-1.38,2.91-2.49,6.23-5.23,12.37-7.35,18.73-1.92,5.74-3.31,11.67-4.66,17.59-1.75,7.7-3.71,15.41-4.71,23.22-2.11,16.35-4,32.76-2.92,49.32a58.25,58.25,0,0,1-.08,7c0,.53-.64,1-1,1.54-.4-.44-1-.82-1.17-1.34-1.8-6.39-3.5-12.8-5.28-19.19-.71-2.57-1.61-5.07-2.3-7.64-.79-3-1.42-6-2.15-8.95q-1.76-7.28-3.54-14.53c-.16-.65-.4-1.27-.51-1.93-2.7-16.77-5.33-33.56-5.49-50.61-.08-7.82,0-15.66,0-23.49Zm420.29,31.69c-.08.32-.16.65-.25,1l1.57,1.2c.53.39,1.05.82,1.61,1.16,8.69,5.18,14.23,13.11,18.51,21.91,3.31,6.81,3.67,14.44,4.64,21.85.12.87-.61,1.86-.94,2.8-1.07-.69-2.45-1.15-3.12-2.11-1.25-1.77-1.76-4.09-3.13-5.73-5-6-9-12.86-15.63-17.51-4.58-3.2-8.77-6.89-13.58-9.88-4.4-2.73-9.17-4.12-13.88-5.88-9.95-3.72-20.3-3.1-30.63-2.82-5.77.15-11.11,2-16.5,3.71-2,.64-4.26.7-5.93,1.76-4.16,2.63-8.48,5-11.83,8.88-6.1,7.16-4.21,19.1,4.08,23.32,4.16,2.12,8.26,4.38,12.43,6.48a37.84,37.84,0,0,0,6.81,3c5.89,1.6,10.59,5.41,15.82,8.22,3.67,2,7.08,4.47,10.57,6.79,1.44,1,2.84,2,4.18,3.1,2.24,1.82,4.37,3.78,6.64,5.56,3.12,2.43,6.6,4.47,9.45,7.17,6.44,6.1,12.67,12.42,18.82,18.82a128.67,128.67,0,0,1,8.82,10.39c1.61,2.08,2.65,4.6,4.16,6.77,3.62,5.21,7.55,10.22,11,15.52,4.31,6.58,9.25,12.62,14.17,18.73a148.2,148.2,0,0,0,13.35,14.65c6.12,5.81,12.37,11.09,20.46,14.1,7.22,2.68,14.54,4,22,2.53a32.73,32.73,0,0,0,12.2-4.6,12.75,12.75,0,0,0,5.42-10.26c0-5.61-3.9-9.74-9.61-12.71a45.15,45.15,0,0,1-16-13.66,57.1,57.1,0,0,1-5.06-8.12,83.66,83.66,0,0,1-3.45-8,55.42,55.42,0,0,1-2.9-8c-1.16-4.93-2-9.93-2.85-14.93-1.54-9.43-2.9-18.9-4.46-28.33-1.42-8.5-2.9-17-4.56-25.46-1.44-7.31-4.94-13.88-8.32-20.41-3.18-6.12-7.88-11.09-12.8-16s-10.88-7.65-16.76-10.77a21.94,21.94,0,0,0-6-2.43c-5.07-.95-10.2-1.59-15.32-2.24A14.07,14.07,0,0,0,420.29,426.26Zm71.44-32.42.35.73a14.73,14.73,0,0,0,3.83-.81c6-3,12.15-5.73,17.72-9.39,5.15-3.38,11.14-4.09,16.54-6.57,3.26-1.49,7-2,10.45-3.07,8.81-2.64,17.51-3.17,26.35.19a11,11,0,0,1,7.19,8.09c.49,1.86,1.41,2.5,3,1.51,2.74-1.69,5.72-3.2,8-5.42,3.88-3.83,7.22-8.22,10.92-12.25,3.23-3.51,2.8-7.6,2.2-11.75a3.25,3.25,0,0,0-.89-2c-3.14-2.42-6.26-5.09-10.34-5.67-5.48-.77-11-.68-16.26,1.32-2.48.94-5,1.81-7.46,2.76-5.15,2-10.4,3.76-15.42,6-4.2,1.92-8.11,4.47-12.19,6.67-2.75,1.5-5.63,2.77-8.35,4.34-4.07,2.35-8.07,4.84-12.06,7.34-3.2,2-6.41,4-9.5,6.22-3.69,2.62-7.31,5.36-10.85,8.18A28,28,0,0,0,491.73,393.84ZM413,218.09c10.61-.68,20.84-2.27,30.49-6.55a30.75,30.75,0,0,1,3.81-1.81c5.37-1.55,9.42-5.07,13.42-8.69,1.46-1.32,1.2-2.65-.32-3.67a26.39,26.39,0,0,0-3.68-2c-1.13-.51-2.39-.76-3.47-1.34-4.31-2.33-8.65-4.61-12.82-7.17-4.41-2.71-8.25-2.26-12.56.56-4.54,3-9.61,5.13-14.44,7.64a2.25,2.25,0,0,1-.24.08c-4.27,1.88-8.61,3.63-12.8,5.68s-8.44,4.42-12.62,6.72c-.72.4-1.74,1.16-1.73,1.73a3,3,0,0,0,1.56,2C395.53,215.66,404.14,217.57,413,218.09Z"/><path d="M292.07,229a71.18,71.18,0,0,1,24,3.68c3.2,1.1,6.59,1.66,9.71,2.92a104.49,104.49,0,0,1,13.63,6.28c4.82,2.79,9.24,6.27,13.85,9.43a10.22,10.22,0,0,0,1.79.87,3.47,3.47,0,0,1,2.06,4.62,11.22,11.22,0,0,1-2.28,4.09c-2.25,2.1-3.32,5.21-6.6,6.53-2.23.9-3.76,3.42-5.89,4.74a36.55,36.55,0,0,1-8.14,3.86,43.13,43.13,0,0,1-10.65,2.25c-10.9.56-20.3-3.28-28.21-10.76a75.6,75.6,0,0,1-5.8-5.94,27.06,27.06,0,0,1-3.19-5c-4-7.52-6.45-15.41-5.72-24.06.18-2.2.95-3.63,3.46-3.57C286.74,229,289.4,229,292.07,229Z"/><path d="M530.44,249.49c.68,4.81-1.25,10.21-3.78,15.22-1.37,2.71-4.2,4.75-6.56,6.87a15.7,15.7,0,0,1-4.62,2.8c-4.4,1.72-10-1.24-12.23-5.35-3.74-6.82-3-13.94-1.61-20.87.78-3.9,1.87-8.29,5.92-10.85,2.32-1.47,4.22-3.57,6.48-5.16,2.62-1.84,6-1.32,8.65.08C529.37,235.79,530.45,241.79,530.44,249.49Z"/></g></g></svg>